<svg enable-background="new 0 0 512 512" viewBox="0 0 512 512" xmlns="http://www.w3.org/2000/svg"><path d="m484.973 122.808-32.685 328.209h-392.576l-26.333-321.857 222.621 124.642z" fill="#f2f2f2"/><path d="m473.886 60.983-217.886 204.676-217.886-204.676h217.886z" fill="#f2f2f2"/><path d="m59.712 155.493v295.524h-35.573c-13.327 0-24.139-10.811-24.139-24.139v-314.911l39 1.063z" fill="#f14336"/><path d="m512 111.967v314.912c0 13.327-10.812 24.139-24.152 24.139h-35.56v-295.525l19.692-46.525z" fill="#d32e2a"/><path d="m512 85.122v26.845l-59.712 43.526-196.288 143.068-196.288-143.068-59.712-43.526v-26.845c0-13.327 10.812-24.139 24.139-24.139h13.975l217.886 158.809 217.886-158.809h13.962c13.34 0 24.152 10.811 24.152 24.139z" fill="#f14336"/><path d="m59.712 155.493-59.712-9.258v-34.268z" fill="#d32e2a"/></svg>